HIERARCHY
ROOT Hips
{
	OFFSET -14.64140 90.27770 -84.91600
	CHANNELS 6 Xposition Yposition Zposition Zrotation Xrotation Yrotation
	JOINT Spine
	{
		OFFSET 0.00000 13.20850 -1.60436
		CHANNELS 3 Zrotation Xrotation Yrotation
		JOINT Spine1
		{
			OFFSET 0.00000 8.61716 0.00000
			CHANNELS 3 Zrotation Xrotation Yrotation
			JOINT Spine2
			{
				OFFSET 0.00000 8.61717 0.00000
				CHANNELS 3 Zrotation Xrotation Yrotation
				JOINT Spine3
				{
					OFFSET 0.00000 8.61717 0.00000
					CHANNELS 3 Zrotation Xrotation Yrotation
					JOINT Neck
					{
						OFFSET 0.00000 11.07920 1.10792
						CHANNELS 3 Zrotation Xrotation Yrotation
						JOINT Neck1
						{
							OFFSET 0.00000 7.08032 0.00000
							CHANNELS 3 Zrotation Xrotation Yrotation
							JOINT Head
							{
								OFFSET 0.00000 7.08031 0.00000
								CHANNELS 3 Zrotation Xrotation Yrotation
								End site
								{
									OFFSET 0.00000 0.00000 0.00000
								}
							}
						}
					}
					JOINT RightShoulder
					{
						OFFSET -0.01000 7.91373 5.19711
						CHANNELS 3 Zrotation Xrotation Yrotation
						JOINT RightArm
						{
							OFFSET -18.41580 0.00000 0.00000
							CHANNELS 3 Zrotation Xrotation Yrotation
							JOINT RightForeArm
							{
								OFFSET -29.11090 0.00000 0.00000
								CHANNELS 3 Zrotation Xrotation Yrotation
								JOINT RightHand
								{
									OFFSET -24.65040 0.00000 0.00000
									CHANNELS 3 Zrotation Xrotation Yrotation
									JOINT RightHandThumb1
									{
										OFFSET -5.35114 -0.85590 3.97906
										CHANNELS 3 Zrotation Xrotation Yrotation
										JOINT RightHandThumb2
										{
											OFFSET -4.52789 0.00000 0.00000
											CHANNELS 3 Zrotation Xrotation Yrotation
											JOINT RightHandThumb3
											{
												OFFSET -2.46976 0.00000 0.00000
												CHANNELS 3 Zrotation Xrotation Yrotation
												End site
												{
													OFFSET 0.00000 0.00000 0.00000
												}
											}
										}
									}
									JOINT RightHandIndex1
									{
										OFFSET -14.26970 0.00000 2.88139
										CHANNELS 3 Zrotation Xrotation Yrotation
										JOINT RightHandIndex2
										{
											OFFSET -5.48836 0.00000 0.00000
											CHANNELS 3 Zrotation Xrotation Yrotation
											JOINT RightHandIndex3
											{
												OFFSET -3.01859 0.00000 0.00000
												CHANNELS 3 Zrotation Xrotation Yrotation
												End site
												{
													OFFSET 0.00000 0.00000 0.00000
												}
											}
										}
									}
									JOINT RightHandMiddle1
									{
										OFFSET -14.26970 0.00000 -0.09147
										CHANNELS 3 Zrotation Xrotation Yrotation
										JOINT RightHandMiddle2
										{
											OFFSET -6.17441 0.00000 0.00000
											CHANNELS 3 Zrotation Xrotation Yrotation
											JOINT RightHandMiddle3
											{
												OFFSET -3.56743 0.00000 0.00000
												CHANNELS 3 Zrotation Xrotation Yrotation
												End site
												{
													OFFSET 0.00000 0.00000 0.00000
												}
											}
										}
									}
									JOINT RightHandRing1
									{
										OFFSET -12.69180 0.00000 -3.06433
										CHANNELS 3 Zrotation Xrotation Yrotation
										JOINT RightHandRing2
										{
											OFFSET -5.62556 0.00000 0.00000
											CHANNELS 3 Zrotation Xrotation Yrotation
											JOINT RightHandRing3
											{
												OFFSET -3.56744 0.00000 0.00000
												CHANNELS 3 Zrotation Xrotation Yrotation
												End site
												{
													OFFSET 0.00000 0.00000 0.00000
												}
											}
										}
									}
									JOINT RightHandPinky1
									{
										OFFSET -11.11390 0.00000 -6.03719
										CHANNELS 3 Zrotation Xrotation Yrotation
										JOINT RightHandPinky2
										{
											OFFSET -4.52789 0.00000 0.00000
											CHANNELS 3 Zrotation Xrotation Yrotation
											JOINT RightHandPinky3
											{
												OFFSET -2.46976 0.00000 0.00000
												CHANNELS 3 Zrotation Xrotation Yrotation
												End site
												{
													OFFSET 0.00000 0.00000 0.00000
												}
											}
										}
									}
								}
							}
						}
					}
					JOINT LeftShoulder
					{
						OFFSET 0.01000 7.91373 5.19711
						CHANNELS 3 Zrotation Xrotation Yrotation
						JOINT LeftArm
						{
							OFFSET 18.41580 0.00000 0.00000
							CHANNELS 3 Zrotation Xrotation Yrotation
							JOINT LeftForeArm
							{
								OFFSET 29.11090 0.00000 0.00000
								CHANNELS 3 Zrotation Xrotation Yrotation
								JOINT LeftHand
								{
									OFFSET 24.65040 0.00000 0.00000
									CHANNELS 3 Zrotation Xrotation Yrotation
									JOINT LeftHandThumb1
									{
										OFFSET 5.35114 -0.85590 3.97906
										CHANNELS 3 Zrotation Xrotation Yrotation
										JOINT LeftHandThumb2
										{
											OFFSET 4.52789 0.00000 0.00000
											CHANNELS 3 Zrotation Xrotation Yrotation
											JOINT LeftHandThumb3
											{
												OFFSET 2.46977 0.00000 0.00000
												CHANNELS 3 Zrotation Xrotation Yrotation
												End site
												{
													OFFSET 0.00000 0.00000 0.00000
												}
											}
										}
									}
									JOINT LeftHandIndex1
									{
										OFFSET 14.26970 0.00000 2.88139
										CHANNELS 3 Zrotation Xrotation Yrotation
										JOINT LeftHandIndex2
										{
											OFFSET 5.48836 0.00000 0.00000
											CHANNELS 3 Zrotation Xrotation Yrotation
											JOINT LeftHandIndex3
											{
												OFFSET 3.01859 0.00000 0.00000
												CHANNELS 3 Zrotation Xrotation Yrotation
												End site
												{
													OFFSET 0.00000 0.00000 0.00000
												}
											}
										}
									}
									JOINT LeftHandMiddle1
									{
										OFFSET 14.26970 0.00000 -0.09147
										CHANNELS 3 Zrotation Xrotation Yrotation
										JOINT LeftHandMiddle2
										{
											OFFSET 6.17440 0.00000 0.00000
											CHANNELS 3 Zrotation Xrotation Yrotation
											JOINT LeftHandMiddle3
											{
												OFFSET 3.56744 0.00000 0.00000
												CHANNELS 3 Zrotation Xrotation Yrotation
												End site
												{
													OFFSET 0.00000 0.00000 0.00000
												}
											}
										}
									}
									JOINT LeftHandRing1
									{
										OFFSET 12.69180 0.00000 -3.06433
										CHANNELS 3 Zrotation Xrotation Yrotation
										JOINT LeftHandRing2
										{
											OFFSET 5.62556 0.00000 0.00000
											CHANNELS 3 Zrotation Xrotation Yrotation
											JOINT LeftHandRing3
											{
												OFFSET 3.56744 0.00000 0.00000
												CHANNELS 3 Zrotation Xrotation Yrotation
												End site
												{
													OFFSET 0.00000 0.00000 0.00000
												}
											}
										}
									}
									JOINT LeftHandPinky1
									{
										OFFSET 11.11390 0.00000 -6.03719
										CHANNELS 3 Zrotation Xrotation Yrotation
										JOINT LeftHandPinky2
										{
											OFFSET 4.52789 0.00000 0.00000
											CHANNELS 3 Zrotation Xrotation Yrotation
											JOINT LeftHandPinky3
											{
												OFFSET 2.46976 0.00000 0.00000
												CHANNELS 3 Zrotation Xrotation Yrotation
												End site
												{
													OFFSET 0.00000 0.00000 0.00000
												}
											}
										}
									}
								}
							}
						}
					}
					JOINT pCube4
					{
						OFFSET 0.00000 10.91090 1.10792
						CHANNELS 3 Zrotation Xrotation Yrotation
						End site
						{
							OFFSET 0.00000 0.00000 0.00000
						}
					}
				}
			}
		}
	}
	JOINT RightUpLeg
	{
		OFFSET -9.98441 0.00000 0.00000
		CHANNELS 3 Zrotation Xrotation Yrotation
		JOINT RightLeg
		{
			OFFSET 0.00000 -42.11790 0.00000
			CHANNELS 3 Zrotation Xrotation Yrotation
			JOINT RightFoot
			{
				OFFSET 0.00000 -45.00020 -0.00001
				CHANNELS 3 Zrotation Xrotation Yrotation
				JOINT RightForeFoot
				{
					OFFSET 0.00000 -3.74820 0.00000
					CHANNELS 3 Zrotation Xrotation Yrotation
					JOINT RightToeBase
					{
						OFFSET 0.00000 0.06325 14.43120
						CHANNELS 3 Zrotation Xrotation Yrotation
						End site
						{
							OFFSET 0.00000 0.00000 0.00000
						}
					}
				}
			}
		}
	}
	JOINT LeftUpLeg
	{
		OFFSET 9.98441 0.00000 0.00000
		CHANNELS 3 Zrotation Xrotation Yrotation
		JOINT LeftLeg
		{
			OFFSET 0.00000 -42.11800 0.00000
			CHANNELS 3 Zrotation Xrotation Yrotation
			JOINT LeftFoot
			{
				OFFSET 0.00000 -45.00070 0.00000
				CHANNELS 3 Zrotation Xrotation Yrotation
				JOINT LeftForeFoot
				{
					OFFSET 0.00000 -3.74824 0.00000
					CHANNELS 3 Zrotation Xrotation Yrotation
					JOINT LeftToeBase
					{
						OFFSET 0.00000 0.06325 14.43110
						CHANNELS 3 Zrotation Xrotation Yrotation
						End site
						{
							OFFSET 0.00000 0.00000 0.00000
						}
					}
				}
			}
		}
	}
}
MOTION
Frames: 4
Frame Time: 0.050000
0.047767999025720126 -0.04256573480014423 -0.010790258727981283 0.023636911671937433 0.010918553550377137 0.04384137990143742 -2.5540212661258934 -0.3110314143898446 -0.8624840276143155 -0.7821252691231337 3.585299060582267 0.34511295961029526 -1.0556171220573718 -2.2802570851977753 -2.259251228478492 0.2521674652527878 0.03855739380702529 -0.9728116227716849 -0.043206412908538605 13.028862807373269 0.06869085933845326 0.1699746205940954 0.37455806828517496 -0.3378501656372439 0.11484759250256975 -14.098336057672007 0.005418779388059993 -4.163059003940783 1.559023968866978 -14.468982324416213 69.33158140761492 9.500878662287459 9.968086671384965 50.48572836332825 4.733071970669224 94.54220701558926 25.27424302096698 -0.37415031143257904 -5.036968570401003 4.47940555551951 -0.15147746939655304 -1.599699075152986 0.01378699499024612 0.02509237843807144 -56.25904038770434 0.04519079384825479 -0.029695737415235096 -56.18466920200655 -38.7690772813724 -0.026496108240881333 -0.015694965458195185 0.03772129296440996 0.002720317141187329 -0.022633235674512038 0.035372546610922484 0.0012322162976972956 -0.004352120979824784 -36.68208979165129 -0.01096364179774016 0.041882518704953284 0.0074852912012500755 -0.007650525840676787 0.0049211784673416975 -0.0009446166118265207 0.027462398278889074 -0.024097195292018092 -19.766409569052932 0.00402813441543799 0.0380223354768017 0.011201417304317745 0.008162396734055926 0.006887066781869401 -0.00462215936856053 0.000740181637718444 -0.04363176487685054 24.086295165328075 -0.0025106504772696827 0.04477531080638404 28.836774686479345 -0.034819412912445794 -0.009590414785298273 28.838072798461877 0.041465969215512974 -0.018959204246444688 6.929530448354724 1.6832911538928752 11.863141618415957 -69.31100414928294 14.132044277282477 -15.12768169809168 -75.16306440452114 0.4113067511609673 -96.57371230027883 -17.468938774609544 -2.087942302673483 -0.07508381725546129 -0.4457329034547523 0.057905264837942526 -8.11600027695429 -0.033320704677739676 0.020556664202907988 44.59847457838478 0.021427049545918935 0.01301145622336286 44.59205446989404 12.419785789717682 -0.005879720574410682 -0.040672679466772936 -0.02221144577912166 -0.0030010502514342756 -0.02207777635150315 0.0039902642485520785 0.04273754289264615 -0.03619285647587798 11.090799251996765 -0.030433721783513938 -0.01577742740744824 -0.0002699092028031175 -0.018596117344732356 -0.028378376049569002 0.005469686688004191 0.021101360048130475 0.017343541091420677 4.759328837152503 -0.019383330316574708 -0.012696497901532532 -0.023754835501244864 -0.0026499711377728935 -0.04831962768016438 0.005539989516314341 0.03125744401212331 0.04314535106943831 -5.554752152854179 -0.03556584782032585 -0.02063692762808926 -6.672080680559863 -0.005671840502548468 -0.004499488039884458 -6.6978746227577295 -0.018326456168698935 -0.00215066325245878 -0.0003879809080565269 -0.037141017321427355 -0.04002948110850201 8.016903383505433 3.457571765362429 -19.257752697055363 0.01357957949854713 10.378059934894084 0.014416359661967578 -5.584815039118045 -15.656968674378696 3.153543579233051 0.0028766617511488436 0.01621682822501354 -0.01431327663483063 0.025815344709158618 4.713865323106252 0.04133478178716786 12.47824579576637 -8.23925126403616 6.857502940475046 0.0496585313892374 46.372264744067856 0.023648827691565538 -4.321711463261962 -14.712759935465494 -3.8497102370552074 -0.005319656587396138 0.008523171170838837 0.04058648300788566 -0.015344519485136118 -10.759045270070214 0.02833026869362956 
-0.003631444661346848 0.027283030894841603 -0.039679297155780224 -0.02224382337656226 0.03887809021805649 0.04237472951309405 -2.504056010761385 -0.3742684098693955 -0.8712316715629909 -0.7367437211682639 3.526300991327187 0.3003766202750532 -1.1145625567044308 -2.2554530357451594 -2.2657711249906756 0.288761359148678 0.04146938540505553 -1.0295333015651869 -0.06402240729096872 12.908798272987747 0.12039812470460379 0.22951247067485467 0.33954032186139005 -0.27044087930187777 0.1246834928677628 -14.152740673560194 0.009808051010751443 -4.072771991483801 1.542226052881969 -14.540854605201309 69.61395147235109 10.715604898719576 8.71436860446402 50.56202967383931 5.395201180830348 94.02910918107885 25.184960663241764 -0.297839376824594 -4.950264041787636 4.504022159231412 -0.16156222587888808 -1.557492882217979 -0.016981797437911967 -0.010877164672647233 -56.25308310015904 -0.04776170603449272 0.0010167704715672967 -56.19611780268006 -38.79988151347743 0.036294846926037024 0.03355327591481621 0.04489028240596217 0.023731540078471097 0.03054303052607896 -0.041948866336032196 -0.029512953543931304 -0.007552943052290837 -36.733484201016466 0.048624176539956765 -0.027559756194525536 0.04258784686862515 -0.025049444386003455 0.024403915957259874 0.04414671579949149 -0.015699920597703126 0.027493184655607444 -19.731507385469076 -0.045151944345791395 -0.010853238909080038 -0.04084311838114686 0.04621664786522856 -0.017901982579873167 -0.009065128032146982 -0.014585845865862855 0.021041170211219137 24.089545660636425 -0.018616693792715567 0.003689638397409032 28.840826604104258 0.004892911663090667 0.0458468716139129 28.86518231576366 -0.038827747541250617 0.04822108785654162 6.91862494363041 1.6131163887123223 11.988579432073161 -70.03307374433372 14.222963849000436 -13.941532688298645 -78.29925103320546 0.9588650209035872 -97.79348889131757 -18.02981905735097 -2.1308553458147053 -0.1924804427203253 -0.5114672239161898 0.0841532608416229 -8.122436525836743 0.015135927191172814 0.01621278905316425 44.56144439046297 -0.003121762379649597 0.03540431556885624 44.59051492347664 12.431865500460722 0.013668479055339182 -0.015069899961911572 0.024681109496987222 0.04131671398083244 0.04060505932310273 -0.021287213000291915 -0.01881503245857525 -0.023444792403960614 11.110714246113254 0.04029200356428697 0.013577386273132779 0.02830160919452865 -0.013469795380125129 0.03918918571004127 -0.03384346609122391 -0.03743737123246164 0.017861138208124624 4.748800088819908 -0.00016377335753859233 -0.00949852209851844 0.013900615216522163 -0.04376660843218913 0.007209048297624336 0.029641209721042807 0.01895222400843535 -0.0019720763703118963 -5.579823970748136 -0.04831450284700969 0.041820302563712636 -6.769228956599317 -0.006218246773258562 0.01445149665173796 -6.703341752169795 0.033223149532619456 0.017592199104251357 -0.0037248978523895917 -0.034840402240521144 -0.04373960709701229 8.046910115222413 3.456093573915602 -19.217018474848693 -0.04131939757534008 10.35446295351342 -0.0016790783063116085 -5.640561723572781 -15.708323249276436 3.205870425237191 0.03584516902273693 -0.004585804215032746 -0.008247507515414379 0.003104812575678844 4.690920185166576 0.015734219341952772 12.449898158162954 -8.235155778070427 6.8686270488631 -0.030116491044719952 46.390852298292266 0.01196193108285642 -4.310393611644296 -14.751139002708 -3.81202388016213 0.006869792548633828 -0.0118658388642908 0.026745639520190156 0.007207739548246502 -10.785339385133085 -0.004700337776878121 
-0.010907897804620967 0.023675625979120804 -0.025407376744151597 0.022950597719850096 -0.0150749567298276 -0.003021779223883454 -2.5699348277078915 -0.4771825033473013 -0.8802012596116465 -0.7921214039542452 3.536135271020099 0.2707448463724287 -1.1210407784983865 -2.2547103686592047 -2.2305254348169483 0.30053769979639416 -0.00586355162125822 -0.94808574430875 -0.06434460436906576 12.820222649789528 0.016179951607476616 0.21752691577053243 0.2604676354815629 -0.32730670543361967 0.13739340041990755 -14.207229079635457 0.03970779924128699 -4.009275592832246 1.5013612310484707 -14.646501609099973 69.68233901431444 10.440489259930994 7.51936795420174 49.20560505732011 6.023634886415419 92.92039144870544 24.934791339726615 -0.31915913369809173 -4.9511349840017065 4.568330054679593 -0.17437151848917182 -1.5985748285028873 0.03781879498531618 0.03507692322030558 -56.19406416699537 -0.002220530314688662 -0.04207544550141987 -56.195961972562536 -38.78564871915227 -0.04830219776159115 -0.03551507755344985 -0.018944875268857613 -0.04527098474582372 -0.022646227058316884 -0.04809490684780539 0.01399489602755718 0.015727150185066843 -36.67229664339207 -0.04691119055746344 0.03809217696495144 -0.031656133154523196 0.014295614084208222 -0.025939307045345122 0.018482294162663396 -0.009610615347181868 -0.002643345824733529 -19.78700704737034 0.006774906651226638 -0.015355019693712215 -0.007938237535355929 -0.01885176833656903 0.02243119064233965 0.02392735931842199 -0.019118571250433036 -0.023254501780013107 24.09973850854018 0.0465957382307777 -0.028814701634291257 28.89660204054504 0.040925959182006706 0.014831140825203249 28.81657397295436 -0.016234099687525982 0.019668023706218927 6.792944910660117 1.5764353451756825 12.02882321676538 -70.42762874240279 13.43147662501074 -13.23910257837788 -78.95665178969553 0.9833203859798999 -98.09151746832427 -17.604024183729997 -1.8647231234719752 -0.5009305685804077 -0.43315042439307827 0.03304402155506301 -8.095768908768482 0.00485942972733834 -0.026174195276434487 44.54281302877452 0.023697244907173884 0.021764548476443234 44.574583642301285 12.444665712661017 0.0054821586562490065 -0.0010605355452716024 -0.04442405378019064 0.04198786903711848 0.03276709345212837 0.044004300896439405 0.041274525300257305 0.027842832792817247 11.14495575786232 -0.03967307061166305 -0.014792223686006831 -0.010862737495900677 -0.009254552043358977 0.038346633547304304 -0.02790844006970928 -0.02264767306658366 -0.006428537856414202 4.7313975662482886 -0.043817524161284344 0.03454131150090357 0.025777316440349522 0.013900504900163141 0.019077911781168005 -0.04846662729436747 0.0021394246926337472 0.03143978667770341 -5.609214739359396 0.03362605032634485 -0.01517525614496097 -6.748791229847448 0.019117081769268456 -0.02119106037603501 -6.671841232427507 -0.03676168255357182 0.04413376652169941 0.03660495757103507 -0.011969058163021962 -0.04153723191441894 8.047327896870305 3.541569103403416 -19.21176203861088 -0.007707112287851678 10.403098818319583 0.005404297751296586 -5.593415068801341 -15.650540416236627 3.208753884490824 -0.011014651558442187 -0.0023872908350460157 -0.008543998597329974 0.01549060531954787 4.719680118139594 0.006420033183620051 12.440558833704474 -8.250566984177151 6.9330077946789705 -0.04167707076198759 46.38763137987769 -0.03598712700181439 -4.37120280071922 -14.7426353932454 -3.868375916561549 0.009653986111750128 0.03450038567064662 -0.006357295344706102 -0.009001822465991727 -10.733315428458692 -0.020993222735598567 
-0.020693457891759262 -0.04924889802573666 -0.03479574346695923 -0.003694378987870957 -0.020537040256483983 0.04821478628522926 -2.6063130300011634 -0.4204217666815813 -0.8970171086716867 -0.7639010807611639 3.5085914248471815 0.3259158303041806 -1.118161566458786 -2.2943833736725883 -2.298479156250573 0.2737025429050358 0.036365026514651566 -1.0049687248101538 -0.04241752216641909 12.597816353152469 0.05752265016108575 0.2359170007791885 0.24544536096147845 -0.3419514621510703 0.16355854625238764 -14.239846200542859 -0.05593243595479719 -3.829018025853251 1.526438486202774 -14.750146564796808 69.70841236094542 9.901825365884438 6.567010798724607 47.80841642054489 6.517502709375694 91.93805159270019 24.76845823047089 -0.3127498446369549 -5.082427268482344 4.491976424221824 -0.14248132687611612 -1.6204095504458396 0.010107956220681545 0.012195700531539606 -56.224020885828374 0.016784581023787725 -0.014754958992939335 -56.25841010551769 -38.729911758091866 -0.0124046206237456 -0.006528152097791608 0.013038129844247051 -0.0042925428750171975 -0.0008849558967913678 -0.00501718446960018 0.03820745097603051 0.011352823106205783 -36.72932004703186 -0.03941685669719619 -0.010811930785854922 -0.00030358082090956116 -0.01673678728739919 0.04422869506044297 -0.0029407283024021373 0.02340270965113506 0.016140878126997896 -19.73408101940719 0.02952297401450852 0.03700256334222011 0.027563007249179164 0.008488070439850278 0.007061164722804692 0.04560202740043356 0.0006450167646338058 0.021926724413778884 24.088662983179635 0.04737585725087707 -0.031119017495192535 28.89653651856143 0.009912841880521163 -0.022573122154628922 28.847348332591974 -0.028300329123809146 0.04201349828132589 6.631004247339798 1.5646523827241736 12.100743344640795 -70.72529485376837 12.559758009568489 -12.503436705174197 -79.03017196923365 1.1216896682867532 -98.29802008422669 -17.157290438960093 -1.6232799474753155 -0.8489368987420121 -0.4377220034795635 0.08809687754217468 -8.124288499493703 0.002433160023952742 0.007519340589723681 44.57383555220834 -0.044405156596178254 0.024966375394391165 44.55336668313374 12.496750853712875 -0.012666522457264056 0.0050502205511553915 -0.02642418360812859 -0.0034598221872358045 -0.013960319997652888 -0.0033200639435065392 0.03867837997115964 -0.018343597871571398 11.09660502405869 -0.011014284166466591 0.0190701213912438 0.039415815858860184 0.04156945071202413 -0.043663982469838665 -0.03407714705437312 -0.003616491431712914 -0.02539809793394551 4.792861793133279 0.0016433489548252937 0.048503202219996454 0.010658643843392638 0.013484275636218707 -0.011772086503711561 -0.04030612709757048 -0.029206576811611328 -0.040528726433098364 -5.578394190263035 -0.035465920552048454 -0.026319123133196416 -6.766182257022926 0.042499819933670156 0.01705938985518191 -6.729317365344415 0.028615223128115815 0.007513846748390737 -0.024713961713410063 -0.006060869884799371 -0.00581654071931695 8.073991895244724 3.4842505321754684 -19.266643363404455 -0.0028722797079876656 10.40235719621819 0.046826346191677234 -5.6613112183154 -15.68274308649499 3.161451294587625 0.016156192573763894 -0.02640880451209551 0.013733658401272766 -0.008295284801044274 4.69525379821403 -0.04688013246384647 12.464440907942762 -8.279117961578836 6.907439022990469 -0.021710255867873163 46.39809980284662 -0.007022760243312363 -4.332073208609883 -14.705776749209964 -3.841633693756133 -0.018255815924158612 -0.007963201888135537 0.007257677972126092 0.014846370974591887 -10.740894947109817 -0.04831441180460595 
